<svg xmlns="http://www.w3.org/2000/svg" xmlns:xlink="http://www.w3.org/1999/xlink" viewBox="0 0 22.01 13.68"><defs><style>.cls-1{fill:none;}.cls-2{clip-path:url(#clip-path);}.cls-3{fill:#002e87;}.cls-4{fill:#263b80;}.cls-5{fill:#6ac3e9;}.cls-6{fill:#6ea9db;}.cls-7{fill:#2d6fb7;}.cls-8{fill:#fff;}</style><clipPath id="clip-path" transform="translate(0)"><rect class="cls-1" width="22.01" height="13.68"/></clipPath></defs><g id="Layer_2" data-name="Layer 2"><g id="Layer_1-2" data-name="Layer 1"><g class="cls-2"><path d="M13.6,5.94a.52.52,0,0,0,0-1,.52.52,0,0,0,0,1" transform="translate(0)"/></g><rect class="cls-3" x="9.26" y="2" width="9.67" height="9.67" transform="translate(-0.71 11.97) rotate(-45)"/><g class="cls-2"><path class="cls-4" d="M17.94,10.68l.46-.46a.46.46,0,0,1,.33-.15.36.36,0,0,1,.3.11.38.38,0,0,1,.08.43.48.48,0,0,1,.33.05l.43.15-.28.28-.28-.1a.84.84,0,0,0-.29-.08.17.17,0,0,0-.14.06l-.07.07.42.42-.26.26Zm.44-.06.24.23.13-.13a.25.25,0,0,0,.08-.14.18.18,0,0,0,0-.12q-.12-.12-.27,0Z" transform="translate(0)"/></g><polygon class="cls-4" points="20.57 9.74 20.75 9.93 19.99 10.69 18.96 9.66 19.71 8.91 19.9 9.1 19.41 9.59 19.63 9.81 20.1 9.34 20.29 9.53 19.81 9.99 20.06 10.24 20.57 9.74"/><rect class="cls-4" x="20.39" y="8.35" width="0.36" height="1.46" transform="translate(-0.39 17.21) rotate(-45)"/><polygon class="cls-4" points="20.35 8.27 20.54 8.46 20.91 8.09 21.76 8.93 22.01 8.67 21.17 7.83 21.54 7.46 21.35 7.27 20.35 8.27"/><polygon class="cls-5" points="6.84 0 0 6.84 6.84 13.68 7.44 13.07 1.21 6.84 7.44 0.6 6.84 0"/><polygon class="cls-6" points="9.26 0 2.42 6.84 9.26 13.68 9.86 13.07 3.63 6.84 9.86 0.6 9.26 0"/><polygon class="cls-7" points="11.67 0 4.83 6.84 11.67 13.68 12.28 13.07 6.04 6.84 12.28 0.6 11.67 0"/><polygon class="cls-8" points="12.67 7.8 12.67 8.37 10.29 8.37 10.29 5.26 11.07 5.26 11.07 7.8 12.67 7.8"/><polygon class="cls-8" points="15.18 5.26 15.18 5.83 14.05 5.83 14.05 8.37 13.27 8.37 13.27 5.83 12.14 5.83 12.14 5.26 15.18 5.26"/><g class="cls-2"><path class="cls-8" d="M18.29,7.42V8.1a2.52,2.52,0,0,1-1.22.31A1.89,1.89,0,0,1,15.75,8a1.54,1.54,0,0,1,0-2.27,1.93,1.93,0,0,1,1.36-.47,2.22,2.22,0,0,1,1.13.27v.7a2.15,2.15,0,0,0-1.08-.32,1.25,1.25,0,0,0-.81.26.91.91,0,0,0,0,1.37,1.15,1.15,0,0,0,.79.27,1.45,1.45,0,0,0,.47-.07,3.57,3.57,0,0,0,.66-.28" transform="translate(0)"/></g></g></g></svg>